<?xml version="1.0" encoding="iso-8859-1"?>
<!-- Uploaded to: SVG Repo, www.svgrepo.com, Generator: SVG Repo Mixer Tools -->
<svg height="800px" width="800px" version="1.1" id="Layer_1" xmlns="http://www.w3.org/2000/svg" xmlns:xlink="http://www.w3.org/1999/xlink" 
	 viewBox="0 0 512.427 512.427" xml:space="preserve">
<g transform="translate(1 1)">
	<path style="fill:#FCC309;" d="M33.56,456.682h443.733v-51.2H33.56V456.682z"/>
	<path style="fill:#FFFFFF;" d="M7.96,456.682h25.6v-51.2H7.96V456.682z"/>
	<g>
		<path style="fill:#FD9808;" d="M477.293,456.682h25.6v-51.2h-25.6V456.682z"/>
		<path style="fill:#FD9808;" d="M284.44,405.482H59.16l9.387-16.213c8.533-16.213,8.533-36.693,0-52.907l-9.387-16.213h225.28
			c21.333,0,39.253,18.773,39.253,42.667C323.693,386.708,306.627,405.482,284.44,405.482"/>
	</g>
	<path style="fill:#FFFFFF;" d="M69.4,336.362l-8.533-16.213h-25.6l10.24,16.213c9.387,16.213,9.387,36.693,0,52.907l-10.24,16.213
		h25.6l9.387-16.213C78.787,373.055,78.787,352.575,69.4,336.362"/>
	<path style="fill:#1CD759;" d="M258.84,320.148H33.56l8.533-16.213c8.533-16.213,8.533-36.693,0-52.907l-8.533-16.213h225.28
		c21.333,0,39.253,18.773,39.253,42.667C298.093,301.375,280.173,320.148,258.84,320.148"/>
	<path style="fill:#FFFFFF;" d="M43.8,251.028l-8.533-16.213h-25.6l10.24,16.213c9.387,16.213,9.387,36.693,0,52.907l-10.24,16.213
		h25.6l9.387-16.213C52.333,287.722,52.333,267.242,43.8,251.028"/>
	<path style="fill:#FFDD09;" d="M283.587,234.815H57.453l9.387-16.213c8.533-16.213,8.533-36.693,0-52.907l-9.387-16.213h225.28
		c21.333,0,39.253,18.773,39.253,42.667S304.92,234.815,283.587,234.815"/>
	<path style="fill:#FFFFFF;" d="M68.547,165.695l-9.387-16.213h-25.6l10.24,16.213c9.387,16.213,9.387,36.693,0,52.907
		l-10.24,16.213h25.6l9.387-16.213C77.08,202.388,77.08,181.908,68.547,165.695"/>
	<path style="fill:#54C9FD;" d="M357.827,58.175l88.747,330.24l-64,17.067L293.827,76.095L357.827,58.175z"/>
	<g>
		<path style="fill:#33A9F8;" d="M464.493,385.002L375.747,55.615l-17.92,5.12l88.747,329.387l-64,17.067L464.493,385.002z"/>
		<path style="fill:#33A9F8;" d="M398.787,135.828l-82.773,22.187l-8.533-33.28l82.773-22.187L398.787,135.828z"/>
		<path style="fill:#33A9F8;" d="M451.693,333.802l-82.773,22.187l-8.533-33.28l82.773-22.187L451.693,333.802z"/>
	</g>
	<g>
		<path style="fill:#020101;" d="M502.893,465.215H7.96c-5.12,0-8.533-3.413-8.533-8.533v-51.2c0-5.12,3.413-8.533,8.533-8.533
			h494.933c5.12,0,8.533,3.413,8.533,8.533v51.2C511.427,461.802,508.013,465.215,502.893,465.215z M16.493,448.148H494.36v-34.133
			H16.493V448.148z"/>
		<path style="fill:#020101;" d="M281.027,414.015H33.56c-3.413,0-5.973-1.707-7.68-4.267s-1.707-5.973,0-8.533l10.24-16.213
			c7.68-13.653,7.68-29.867,0-43.52l-10.24-16.213c-1.707-2.56-1.707-5.973,0-8.533c1.707-3.413,4.267-5.12,7.68-5.12h247.467
			c28.16,0,51.2,23.04,51.2,51.2C332.227,390.975,309.187,414.015,281.027,414.015z M48.92,396.948h232.107
			c18.773,0,34.133-15.36,34.133-34.133s-15.36-34.133-34.133-34.133H48.92l1.707,3.413c11.093,18.773,11.093,42.667,0,61.44
			L48.92,396.948z"/>
		<path style="fill:#020101;" d="M281.027,371.348H93.293c-5.12,0-8.533-3.413-8.533-8.533c0-5.12,3.413-8.533,8.533-8.533h187.733
			c5.12,0,8.533,3.413,8.533,8.533C289.56,367.935,286.147,371.348,281.027,371.348z"/>
		<path style="fill:#020101;" d="M255.427,328.682H7.96c-3.413,0-5.973-1.707-7.68-4.267s-1.707-5.973,0-8.533l10.24-16.213
			c7.68-13.653,7.68-29.867,0-43.52L0.28,239.935c-1.707-2.56-1.707-5.973,0-8.533c1.707-3.413,4.267-5.12,7.68-5.12h247.467
			c28.16,0,51.2,23.04,51.2,51.2C306.627,305.642,283.587,328.682,255.427,328.682z M23.32,311.615h232.107
			c18.773,0,34.133-15.36,34.133-34.133c0-18.773-15.36-34.133-34.133-34.133H23.32l1.707,3.413
			c11.093,18.773,11.093,42.667,0,61.44L23.32,311.615z"/>
		<path style="fill:#020101;" d="M255.427,286.015H67.693c-5.12,0-8.533-3.413-8.533-8.533c0-5.12,3.413-8.533,8.533-8.533h187.733
			c5.12,0,8.533,3.413,8.533,8.533C263.96,282.602,260.547,286.015,255.427,286.015z"/>
		<path style="fill:#020101;" d="M281.027,243.348H33.56c-3.413,0-5.973-1.707-7.68-4.267c-1.707-2.56-1.707-5.973,0-8.533
			l10.24-16.213c7.68-13.653,7.68-29.867,0-43.52l-10.24-16.213c-1.707-2.56-1.707-5.973,0-8.533c1.707-3.413,4.267-5.12,7.68-5.12
			h247.467c28.16,0,51.2,23.04,51.2,51.2S309.187,243.348,281.027,243.348z M48.92,226.282h232.107
			c18.773,0,34.133-15.36,34.133-34.133s-15.36-34.133-34.133-34.133H48.92l1.707,3.413c11.093,18.773,11.093,42.667,0,61.44
			L48.92,226.282z"/>
		<path style="fill:#020101;" d="M382.573,414.015c-3.413,0-6.827-2.56-8.533-5.973l-88.747-330.24
			c-0.853-4.267,1.707-9.387,5.973-10.24l82.773-22.187c4.267-0.853,9.387,1.707,10.24,5.973l88.747,329.387
			c0.853,2.56,0,4.267-0.853,6.827c-0.853,2.56-3.413,3.413-5.12,4.267l-82.773,22.187
			C383.427,414.015,382.573,414.015,382.573,414.015z M304.067,82.068l83.627,313.173l65.707-17.92L370.627,64.148L304.067,82.068z"
			/>
		<path style="fill:#020101;" d="M281.027,200.682H93.293c-5.12,0-8.533-3.413-8.533-8.533c0-5.12,3.413-8.533,8.533-8.533h187.733
			c5.12,0,8.533,3.413,8.533,8.533C289.56,197.268,286.147,200.682,281.027,200.682z"/>
		<path style="fill:#020101;" d="M316.013,166.548c-3.413,0-6.827-2.56-8.533-5.973l-8.533-33.28c-0.853-2.56,0-4.267,0.853-6.827
			c0.853-1.707,3.413-3.413,5.12-4.267l82.773-22.187c2.56-0.853,4.267,0,6.827,0.853c1.707,0.853,3.413,3.413,4.267,5.12
			l8.533,33.28c0.853,4.267-1.707,9.387-5.973,10.24l-83.627,23.04C317.72,166.548,316.867,166.548,316.013,166.548z
			 M317.72,131.562l4.267,16.213l65.707-17.92l-4.267-16.213L317.72,131.562z"/>
		<path style="fill:#020101;" d="M368.92,364.522c-3.413,0-6.827-2.56-8.533-5.973l-8.533-33.28c-0.853-2.56,0-4.267,0.853-6.827
			c0.853-2.56,3.413-3.413,5.12-4.267l82.773-22.187c2.56-0.853,4.267,0,6.827,0.853c1.707,0.853,3.413,3.413,4.267,5.12
			l8.533,33.28c0.853,4.267-1.707,9.387-5.973,10.24l-82.773,22.187C370.627,364.522,369.773,364.522,368.92,364.522z
			 M370.627,328.682l4.267,17.067l65.707-17.92l-4.267-16.213L370.627,328.682z"/>
		<path style="fill:#020101;" d="M392.813,287.722c-3.413,0-6.827-2.56-8.533-5.973l-26.453-98.987
			c-0.853-4.267,1.707-9.387,5.973-10.24s9.387,1.707,10.24,5.973l26.453,98.133c0.853,4.267-1.707,9.387-5.973,10.24
			C393.667,287.722,392.813,287.722,392.813,287.722z"/>
	</g>
</g>
</svg>